<?xml version="1.0" encoding="utf-8"?>
<!-- Generator: Adobe Illustrator 22.0.1, SVG Export Plug-In . SVG Version: 6.00 Build 0)  -->
<svg version="1.1" id="Capa_1" xmlns="http://www.w3.org/2000/svg" xmlns:xlink="http://www.w3.org/1999/xlink" x="0px" y="0px"
	 viewBox="0 0 8.7 12.7" style="enable-background:new 0 0 8.7 12.7;" xml:space="preserve">
<style type="text/css">
	.st0{fill:#FFFFFF;stroke:#FFFFFF;stroke-width:0.5;stroke-miterlimit:10;}
</style>
<g>
	<g>
		<path class="st0" d="M4.4,11.9c-0.2,0-0.4-0.2-0.4-0.4V0.7c0-0.2,0.2-0.4,0.4-0.4s0.4,0.2,0.4,0.4v10.8
			C4.8,11.7,4.6,11.9,4.4,11.9z"/>
		<g>
			<path class="st0" d="M0.4,5.9C0.6,5.8,0.9,5.8,1,6l3.3,5.3L7.7,6c0.1-0.2,0.4-0.2,0.6-0.1C8.5,6,8.5,6.2,8.4,6.4l-3.7,5.8
				c-0.1,0.1-0.2,0.2-0.3,0.2S4.1,12.4,4,12.2L0.3,6.4c0-0.1-0.1-0.1-0.1-0.2C0.3,6.1,0.3,6,0.4,5.9z"/>
		</g>
	</g>
</g>
</svg>
